External Loads File
version=1
nRows=38
nColumns=13
Range=5.000000e-03-10 seconds
endheader
time 	forceRightX 	forceRightY 	forceRightZ 	pointRightX 	pointRightY 	pointRightZ 	forceLeftX 	forceLeftY 	forceLeftZ 	pointLeftX 	pointLeftY 	pointLeftZ 		
7.505000 195.700401 749.605774 -0.000000 0.317482 0.180609 -0.160368 -6.962519 -35.327695 -0.000000 0.173029 0.455534 -0.399766
7.510000 211.603010 757.470001 -0.000000 0.308947 0.174765 -0.160214 -13.259080 -34.917122 -0.000000 0.181882 0.461856 -0.399800
7.515000 226.274960 763.850632 -0.000000 0.300140 0.169366 -0.160057 -19.287835 -32.920275 -0.000000 0.190957 0.467617 -0.399801
7.520000 239.851215 768.155974 -0.000000 0.291098 0.164466 -0.159855 -24.839979 -29.170599 -0.000000 0.200334 0.472759 -0.399786
7.525000 252.187070 769.592930 -0.000000 0.281828 0.160410 -0.159567 -29.741445 -23.608506 -0.000000 0.209916 0.477357 -0.399764
7.530000 263.341557 767.069896 -0.000000 0.272413 0.156843 -0.159258 -33.859353 -16.262385 -0.000000 0.219664 0.481311 -0.399707
7.535000 273.547939 759.356743 -0.000000 0.262832 0.153793 -0.159019 -37.079941 -7.246420 -0.000000 0.229652 0.484631 -0.399538
7.540000 282.480745 745.478035 -0.000000 0.252927 0.151614 -0.159175 -39.303242 3.204070 -0.000000 0.239643 0.487219 -0.399539
7.545000 289.620701 724.703923 -0.000000 0.243214 0.150034 -0.158945 -40.475576 14.728096 -0.000000 0.249954 0.489195 -0.399449
7.550000 293.829388 696.853264 -0.000000 0.233483 0.149161 -0.158788 -40.627230 26.817338 -0.000000 0.259966 0.490438 -0.399460
7.555000 295.139664 661.646506 -0.000000 0.223754 0.149105 -0.158633 -39.837584 38.976170 -0.000000 0.269818 0.491024 -0.399579
7.560000 292.656771 619.550703 -0.000000 0.214134 0.149614 -0.158427 -38.288933 50.688953 -0.000000 0.279292 0.490975 -0.399999
7.565000 286.993607 570.639271 -0.000000 0.204650 0.150880 -0.158291 -36.104472 61.657056 -0.000000 0.288848 0.490343 -0.400286
7.570000 277.189465 515.982545 -0.000000 0.195430 0.152797 -0.158114 -33.556864 71.657518 -0.000000 0.298067 0.488946 -0.400565
7.575000 263.512245 456.309383 -0.000000 0.186394 0.155639 -0.157935 -30.828238 80.688678 -0.000000 0.306989 0.486972 -0.400849
7.580000 245.465887 393.078606 -0.000000 0.177847 0.159058 -0.157964 -28.267607 88.831297 -0.000000 0.315522 0.484452 -0.401167
7.585000 223.782876 327.418271 -0.000000 0.169618 0.163273 -0.158040 -26.053303 96.438977 -0.000000 0.323677 0.481285 -0.401523
7.590000 198.766112 261.094077 -0.000000 0.161963 0.168112 -0.158083 -24.453720 104.035423 -0.000000 0.331371 0.477301 -0.401894
7.595000 171.342257 195.768490 -0.000000 0.154710 0.173582 -0.158078 -23.578352 112.297468 -0.000000 0.338683 0.472729 -0.402273
7.600000 142.334926 133.353012 -0.000000 0.147795 0.179421 -0.158071 -23.643110 121.897585 -0.000000 0.345314 0.467494 -0.402518
7.605000 112.941551 75.397056 -0.000000 0.141342 0.185808 -0.158087 -24.709358 133.521000 -0.000000 0.351394 0.461546 -0.402756
7.610000 84.241477 23.186265 -0.000000 0.135276 0.192436 -0.157974 -26.720261 147.814201 -0.000000 0.357400 0.454747 -0.403420
7.615000 57.056879 -22.006531 -0.000000 0.129608 0.199381 -0.157847 -30.152467 165.215593 -0.000000 0.362727 0.447808 -0.403718
7.620000 32.154537 -59.677238 -0.000000 0.124319 0.206762 -0.157528 -34.726862 186.112006 -0.000000 0.367585 0.439987 -0.404054
7.625000 10.105949 -89.384730 -0.000000 0.119588 0.214413 -0.157200 -40.579301 210.507088 -0.000000 0.371984 0.431617 -0.404386
7.630000 -8.707670 -111.065286 -0.000000 0.115257 0.222357 -0.156665 -47.317072 238.096025 -0.000000 0.376070 0.422620 -0.404676
7.635000 -23.813550 -124.892249 -0.000000 0.111291 0.230484 -0.156234 -54.792570 268.147173 -0.000000 0.379703 0.413209 -0.404970
7.640000 -35.024273 -131.285664 -0.000000 0.107639 0.239106 -0.155998 -62.256021 299.822441 -0.000000 0.383008 0.403415 -0.405236
7.645000 -41.951000 -131.040669 -0.000000 0.104367 0.247895 -0.155956 -69.638017 332.083350 -0.000000 0.385833 0.393374 -0.405469
7.650000 -44.527051 -125.262784 -0.000000 0.101547 0.256767 -0.155745 -76.819220 363.982356 -0.000000 0.388330 0.383222 -0.405102
7.655000 -43.204196 -115.230304 -0.000000 0.098394 0.265953 -0.156482 -83.161136 394.903462 -0.000000 0.390361 0.372918 -0.404530
7.660000 -38.278486 -102.541626 -0.000000 0.096584 0.275268 -0.156230 -89.567961 424.196583 -0.000000 0.392011 0.362440 -0.403957
7.665000 -30.775867 -88.595720 -0.000000 0.095303 0.284792 -0.156002 -95.452310 451.782358 -0.000000 0.393246 0.351678 -0.403725
7.670000 -21.681047 -74.638150 -0.000000 0.094641 0.294571 -0.155755 -100.620933 477.699741 -0.000000 0.394014 0.340636 -0.403542
7.675000 -11.932572 -61.606240 -0.000000 0.094810 0.304687 -0.155522 -104.867210 502.157071 -0.000000 0.394383 0.329513 -0.403734
7.680000 -2.330478 -50.121183 -0.000000 0.095206 0.314899 -0.155547 -108.126576 525.449104 -0.000000 0.394008 0.318365 -0.403381
7.685000 6.414354 -40.524447 -0.000000 0.096352 0.325195 -0.155644 -109.857194 548.038382 -0.000000 0.393236 0.307114 -0.403731
7.690000 13.796645 -32.944799 -0.000000 0.097991 0.335589 -0.155835 -110.160475 570.293741 -0.000000 0.391759 0.296071 -0.403583
